<svg xmlns="http://www.w3.org/2000/svg" width="130" height="47" viewBox="0 0 130 47" fill="none" id="Logo"><path d="M12.9512 20.2333C12.9147 21.0901 12.8965 22.1749 12.8965 23.4875C12.8965 24.8001 12.9147 25.8939 12.9512 26.769C12.9876 27.6259 13.0605 28.3095 13.1699 28.82C13.2975 29.3304 13.4707 29.6859 13.6895 29.8865C13.9265 30.087 14.2364 30.1873 14.6193 30.1873C15.0021 30.1873 15.3029 30.087 15.5217 29.8865C15.7587 29.6859 15.9319 29.3304 16.0413 28.82C16.1689 28.3095 16.2509 27.6259 16.2874 26.769C16.3239 25.8939 16.3421 24.8001 16.3421 23.4875C16.3421 22.1749 16.3239 21.0901 16.2874 20.2333C16.2509 19.3582 16.1689 18.6654 16.0413 18.155C15.9319 17.6445 15.7587 17.289 15.5217 17.0885C15.3029 16.8879 15.0021 16.7876 14.6193 16.7876C14.2364 16.7876 13.9265 16.8879 13.6895 17.0885C13.4707 17.289 13.2975 17.6445 13.1699 18.155C13.0605 18.6654 12.9876 19.3582 12.9512 20.2333Z" fill="#394149"></path><path fill-rule="evenodd" clip-rule="evenodd" d="M13.9202 3.1733C7.32643 3.3144 2.08523 8.7556 2.19103 15.35L2.32103 23.4524L2.19103 31.5548C2.08523 38.1493 7.32643 43.5905 13.9202 43.7315L22.0238 43.9049L30.1274 43.7315C36.7212 43.5905 41.9625 38.1493 41.8567 31.5548L41.7267 23.4524L41.8567 15.35C41.9625 8.7556 36.7212 3.3144 30.1274 3.1733L22.0238 3L13.9202 3.1733ZM22.3038 33.7698L19.241 36.4224L16.4517 33.4143C16.2329 33.4508 16.0141 33.4782 15.7954 33.4964C15.5948 33.5328 15.3669 33.5511 15.1117 33.5511H14.6195C13.3251 33.5511 12.2312 33.3779 11.3379 33.0315C10.4446 32.6851 9.72453 32.1108 9.17763 31.3087C8.63073 30.4883 8.23873 29.44 8.00173 28.1639C7.76473 26.8695 7.64623 25.3107 7.64623 23.4877C7.64623 21.6646 7.76473 20.115 8.00173 18.8388C8.23873 17.5444 8.63073 16.4962 9.17763 15.694C9.72453 14.8736 10.4446 14.2811 11.3379 13.9165C12.2312 13.5336 13.3251 13.3422 14.6195 13.3422C15.9139 13.3422 17.0077 13.5336 17.901 13.9165C18.7943 14.2811 19.5145 14.8736 20.0614 15.694C20.6083 16.4962 21.0003 17.5444 21.2373 18.8388C21.4743 20.115 21.5928 21.6646 21.5928 23.4877C21.5928 25.3654 21.4652 26.9515 21.2099 28.2459C20.9547 29.5403 20.5354 30.5977 19.952 31.4181L22.3038 33.7698ZM30.936 20.753V19.6592C30.936 18.5471 30.8266 17.7905 30.6078 17.3895C30.3891 16.9884 30.0336 16.7878 29.5413 16.7878C29.1585 16.7878 28.8486 16.8881 28.6116 17.0887C28.3928 17.2892 28.2196 17.6447 28.092 18.1552C27.9826 18.6656 27.9097 19.3584 27.8732 20.2335C27.8367 21.0903 27.8185 22.1751 27.8185 23.4877C27.8185 24.8003 27.8367 25.8941 27.8732 26.7692C27.9097 27.6261 27.9826 28.3097 28.092 28.8202C28.2196 29.3306 28.3928 29.6861 28.6116 29.8867C28.8486 30.0872 29.1585 30.1875 29.5413 30.1875C29.8512 30.1875 30.1065 30.1146 30.307 29.9687C30.5076 29.8046 30.6625 29.5403 30.7719 29.1757C30.8813 28.8111 30.9542 28.3279 30.9907 27.7263C31.0454 27.1065 31.0727 26.3317 31.0727 25.4019H35.995V26.8513C35.995 28.2186 35.8127 29.3398 35.4481 30.2148C35.0835 31.0899 34.6004 31.7827 33.9988 32.2931C33.3971 32.7854 32.7044 33.1135 31.9204 33.2776C31.1548 33.4599 30.3617 33.5511 29.5413 33.5511C28.1193 33.5511 26.9526 33.3779 26.041 33.0315C25.1295 32.6851 24.4185 32.1108 23.908 31.3087C23.3975 30.4883 23.042 29.44 22.8415 28.1639C22.6592 26.8695 22.568 25.3107 22.568 23.4877C22.568 21.6281 22.6774 20.0512 22.8962 18.7568C23.1332 17.4624 23.5252 16.4141 24.0721 15.612C24.619 14.8098 25.3391 14.2355 26.2324 13.8891C27.1257 13.5245 28.2287 13.3422 29.5413 13.3422C30.6899 13.3422 31.6652 13.4881 32.4674 13.7798C33.2695 14.0715 33.9167 14.4908 34.409 15.0377C34.9194 15.5664 35.284 16.2136 35.5028 16.9793C35.7398 17.7267 35.8583 18.5745 35.8583 19.5225V20.753H30.936Z" fill="#394149"></path><path fill-rule="evenodd" clip-rule="evenodd" d="M65.7549 16.9364L70.2131 21.5629L74.6713 16.9364H82.417L74.0801 24.8676L82.417 32.7987H74.6713L70.2131 28.1604L65.7549 32.7987H57.9974L66.3344 24.8676L57.9974 16.9364H65.7549ZM65.3251 24.8676L56.2576 16.2415H66.0513L70.2131 20.5604L74.3749 16.2415H83.819V16.2297H99.825C103.485 16.1923 106.583 19.2529 106.533 22.9252C106.532 24.2461 106.175 25.4637 105.46 26.5474C104.922 27.3677 104.24 28.0426 103.423 28.5558L106.836 32.9379V30.096C106.836 27.8694 108.5 26.4499 110.414 25.5085C112.347 24.5581 114.786 23.9643 116.817 23.4839L116.82 23.4832L116.843 23.4774C118.095 23.1695 119.161 22.9074 119.92 22.6247C120.304 22.4814 120.556 22.3517 120.7 22.2415C120.718 22.2275 120.733 22.2151 120.746 22.2044C120.702 22.164 120.612 22.1037 120.435 22.0342C120.022 21.8725 119.317 21.7507 118.249 21.7504C117.108 21.7622 116.138 21.855 115.476 22.0872C115.15 22.2017 114.953 22.3321 114.842 22.4545C114.748 22.5596 114.692 22.6843 114.697 22.8799L114.714 23.5915H107.084V22.8966C107.084 21.47 107.364 20.2772 107.924 19.2999C108.487 18.3182 109.307 17.6014 110.307 17.0873C112.269 16.0786 114.972 15.8284 117.986 15.8284C121.072 15.8284 123.634 16.1845 125.448 17.1013C126.366 17.5659 127.112 18.1842 127.625 18.9883C128.139 19.7945 128.391 20.7435 128.391 21.8226C128.391 23.8195 127.186 25.0914 125.709 25.9204C124.275 26.7253 122.47 27.1824 120.971 27.5481H128.131V33.4701H107.25L107.259 33.4819H98.895L95.903 29.6107H91.408V33.4819H84.144L84.157 33.4937H74.3744L70.2131 29.1643L66.0518 33.4937H56.2576L65.3251 24.8676ZM83.819 33.1719V16.5632L75.0893 24.8676L83.819 33.1719ZM96.246 28.9158L99.238 32.7869H105.836L102.371 28.3374C102.588 28.2369 102.795 28.1257 102.994 28.0041C103.752 27.5399 104.382 26.9232 104.878 26.1658C105.517 25.198 105.836 24.1122 105.836 22.9202C105.884 19.6391 103.105 16.8892 99.829 16.9246H84.515V32.7869H90.711V28.9158H96.246ZM117.324 28.243C117.541 27.9777 117.934 27.7521 118.456 27.5481C119.071 27.3073 119.863 27.0965 120.753 26.8858C123.804 26.1422 127.695 25.1272 127.695 21.8226C127.695 17.9514 124.1 16.5233 117.986 16.5233C112.237 16.5233 108.16 17.4599 107.806 22.2016C107.789 22.4248 107.78 22.6563 107.78 22.8966H114.001C114 22.8704 114 22.8446 114.001 22.8192C114.035 21.4093 115.981 21.0786 118.246 21.0554C120.457 21.0554 121.474 21.5511 121.474 22.2239C121.474 23.0543 119.512 23.537 117.048 24.1429L116.981 24.1594C112.889 25.1272 107.532 26.4727 107.532 30.096V32.7751H127.434V28.243H117.324ZM120.785 22.2577C120.785 22.2577 120.781 22.2533 120.779 22.2431C120.785 22.2523 120.785 22.2577 120.785 22.2577ZM98.932 22.9202C98.932 22.5487 98.64 22.2579 98.268 22.2579H91.408V23.5707H98.268C98.468 23.5707 98.608 23.51 98.733 23.3848C98.876 23.2422 98.932 23.0996 98.932 22.9202ZM99.628 22.9202C99.628 22.1648 99.025 21.5629 98.268 21.5629H90.711V24.2656H98.268C98.646 24.2656 98.966 24.1358 99.226 23.8762C99.498 23.6047 99.628 23.2861 99.628 22.9202Z" fill="#394149"></path><path d="M58.5703 44.2424H61.5382V40.1787L64.5116 44.2424H65.9955L68.969 40.1787V44.2424H71.9369V36.625H68.2271L65.2536 40.4337L62.2858 36.625H58.5703V44.2424Z" fill="#394149"></path><path d="M78.1894 36.438C75.3238 36.4437 72.979 37.2711 72.9903 40.156V40.7114C72.979 43.5906 75.3238 44.4238 78.1894 44.4294C81.0494 44.4238 83.3944 43.5906 83.3834 40.7114V40.156C83.3834 37.2768 81.0554 36.438 78.1894 36.438ZM80.4154 40.5244C80.4324 41.7713 79.4014 41.998 78.1894 42.015C76.972 41.998 75.9411 41.7713 75.9581 40.5244V40.3374C75.9411 39.0961 76.972 38.8694 78.1894 38.8524C79.4014 38.8694 80.4324 39.0961 80.4154 40.3374V40.5244Z" fill="#394149"></path><path d="M91.6984 40.4448C91.6984 41.2099 91.2624 41.839 90.4924 41.839H87.2414V39.0505H90.4924C91.2624 39.0505 91.6984 39.6739 91.6984 40.4448ZM84.2734 36.6361V44.2534H91.0474C93.1374 44.2818 94.6894 42.5135 94.6724 40.4448C94.6894 38.3647 93.1374 36.6077 91.0474 36.6361H84.2734Z" fill="#394149"></path><path d="M102.935 40.53C102.952 41.7825 101.922 41.9979 100.709 42.0149C99.492 41.9979 98.467 41.7825 98.478 40.53V36.6249H95.51V40.717C95.499 43.5962 97.855 44.4237 100.709 44.4293C103.564 44.4237 105.92 43.5962 105.909 40.717V36.6249H102.935V40.53Z" fill="#394149"></path><path d="M107.244 36.625V44.2424H116.154V41.828H110.212V36.625H107.244Z" fill="#394149"></path><path d="M117.168 44.2537H126.078V42.2984H120.136V41.3235H126.078V39.5609H120.136V38.586H126.078V36.6364H117.168V44.2537Z" fill="#394149"></path><path d="M60.2792 7.60552V6.00022H64.6781C64.8912 6.00022 65.0767 6.07732 65.2279 6.23852C65.386 6.39282 65.4616 6.58202 65.4616 6.80632C65.4616 7.02372 65.386 7.21292 65.2279 7.37422C65.0767 7.52842 64.8912 7.60552 64.6781 7.60552H60.2792ZM56.6777 3.24532V12.6667H60.2792V10.3674H65.5785C67.4824 10.3955 69.0976 8.74812 69.0701 6.80632C69.0976 4.85762 67.4824 3.22422 65.5785 3.24532H56.6777Z" fill="#394149"></path><path d="M76.2393 3C72.7615 3.007 69.916 4.0305 69.9297 7.5986V8.2856C69.916 11.8467 72.7615 12.8771 76.2393 12.8841C79.71 12.8771 82.556 11.8467 82.542 8.2856V7.5986C82.542 4.0375 79.717 3 76.2393 3ZM78.94 8.0542C78.961 9.5964 77.71 9.8768 76.2393 9.8979C74.7616 9.8768 73.5107 9.5964 73.5313 8.0542V7.8229C73.5107 6.2877 74.7616 6.0073 76.2393 5.9863C77.71 6.0073 78.961 6.2877 78.94 7.8229V8.0542Z" fill="#394149"></path><path d="M96.5847 9.21111L94.4467 3.24561H90.3917L88.2477 9.21111L86.1097 3.24561H82.0547L86.1097 12.667H90.3917L92.4197 7.95631L94.4467 12.667H98.7287L102.785 3.24561H98.7287L96.5847 9.21111Z" fill="#394149"></path><path d="M103.059 12.667H113.87V10.2486H106.66V9.04281H113.87V6.86271H106.66V5.65701H113.87V3.24561H103.059V12.667Z" fill="#394149"></path><path d="M115.787 3.23848V12.66H119.388V10.3607H122.605L124.344 12.66H128.179L126.165 10.0172C126.77 9.72978 127.258 9.29518 127.622 8.72738C127.994 8.15258 128.179 7.50768 128.179 6.79958C128.207 4.85078 126.591 3.21748 124.688 3.23848H115.787ZM123.78 5.99348C124.22 5.99348 124.571 6.35098 124.571 6.79958C124.571 7.01688 124.495 7.20618 124.337 7.36738C124.186 7.52168 124 7.59878 123.78 7.59878H119.388V5.99348H123.78Z" fill="#394149"></path></svg>